<?xml version="1.0" encoding="UTF-8" standalone="no"?>
<!-- Created with Inkscape (http://www.inkscape.org/) -->

<svg
   width="480"
   height="118"
   viewBox="0 0 127 31.220833"
   version="1.1"
   id="svg12637"
   inkscape:version="1.1.2 (08b2f3d93c, 2022-04-05)"
   sodipodi:docname="bilatu.svg"
   xmlns:inkscape="http://www.inkscape.org/namespaces/inkscape"
   xmlns:sodipodi="http://sodipodi.sourceforge.net/DTD/sodipodi-0.dtd"
   xmlns="http://www.w3.org/2000/svg"
   xmlns:svg="http://www.w3.org/2000/svg">
  <sodipodi:namedview
     id="namedview12639"
     pagecolor="#ffffff"
     bordercolor="#666666"
     borderopacity="1.0"
     inkscape:pageshadow="2"
     inkscape:pageopacity="0.0"
     inkscape:pagecheckerboard="0"
     inkscape:document-units="mm"
     showgrid="false"
     units="px"
     inkscape:zoom="0.69664703"
     inkscape:cx="387.57074"
     inkscape:cy="444.98862"
     inkscape:window-width="1563"
     inkscape:window-height="991"
     inkscape:window-x="26"
     inkscape:window-y="23"
     inkscape:window-maximized="0"
     inkscape:current-layer="layer1" />
  <defs
     id="defs12634" />
  <g
     inkscape:label="Calque 1"
     inkscape:groupmode="layer"
     id="layer1">
    <g
       inkscape:label="Clip"
       id="g5866"
       style="fill:#f7b102;fill-opacity:1"
       transform="matrix(0.4883848,0,0,-0.43884458,-8.74932,62.08644)">
      <g
         id="g25"
         transform="matrix(1,0,0,1.2114129,85.954976,127.9406)"
         style="fill:#f7b102;fill-opacity:1">
        <path
           d="m 0,0 c 2.169,0.436 6.559,0.761 10.677,0.761 5.042,0 8.132,-0.49 10.787,-2.061 2.546,-1.355 4.39,-3.848 4.39,-7.153 0,-3.253 -1.897,-6.288 -6.018,-7.806 v -0.108 c 4.174,-1.139 7.264,-4.282 7.264,-8.997 0,-3.307 -1.516,-5.908 -3.794,-7.751 -2.656,-2.114 -7.099,-3.307 -14.361,-3.307 -4.067,0 -7.102,0.272 -8.945,0.542 z m 8.184,-13.983 h 2.71 c 4.336,0 6.668,1.789 6.668,4.5 0,2.763 -2.113,4.226 -5.855,4.226 -1.788,0 -2.818,-0.107 -3.523,-0.216 z m 0,-16.205 c 0.814,-0.108 1.789,-0.108 3.198,-0.108 3.739,0 7.048,1.407 7.048,5.256 0,3.686 -3.309,5.148 -7.427,5.148 H 8.184 Z"
           style="fill:#f7b102;fill-opacity:1;fill-rule:nonzero;stroke:none"
           id="path27" />
      </g>
      <path
         d="m 118.69548,84.278381 h 8.293 V 128.5325 h -8.293 z"
         style="fill:#f7b102;fill-opacity:1;fill-rule:nonzero;stroke:none;stroke-width:1.10065"
         id="path29" />
      <g
         id="g31"
         transform="matrix(1,0,0,1.2114129,134.14388,128.53213)"
         style="fill:#f7b102;fill-opacity:1">
        <path
           d="m 0,0 v -36.53 h 22.819 v 6.937 H 8.293 V 0 Z"
           style="fill:#f7b102;fill-opacity:1;fill-rule:nonzero;stroke:none"
           id="path33" />
      </g>
      <g
         id="g35"
         transform="matrix(1,0,0,1.2114129,170.67858,95.638284)"
         style="fill:#f7b102;fill-opacity:1">
        <path
           d="m 0,0 -2.602,-9.377 h -8.562 L 0,27.154 H 10.84 L 22.169,-9.377 h -8.89 L 10.46,0 Z m 9.268,6.178 -2.276,7.751 c -0.649,2.168 -1.3,4.879 -1.842,7.046 H 5.043 C 4.5,18.808 3.958,16.044 3.361,13.929 L 1.192,6.178 Z"
           style="fill:#f7b102;fill-opacity:1;fill-rule:nonzero;stroke:none"
           id="path37" />
      </g>
      <g
         id="g39"
         transform="matrix(1,0,0,1.2114129,190.46868,128.53213)"
         style="fill:#f7b102;fill-opacity:1">
        <path
           d="M 0,0 V -6.937 H 9.807 V -36.53 h 8.295 v 29.593 h 9.972 V 0 Z"
           style="fill:#f7b102;fill-opacity:1;fill-rule:nonzero;stroke:none"
           id="path41" />
      </g>
      <g
         id="g43"
         transform="matrix(1,0,0,1.2114129,231.17568,128.53335)"
         style="fill:#f7b102;fill-opacity:1">
        <path
           d="m 0,0 v -21.03 c 0,-6.288 2.384,-9.487 6.612,-9.487 4.336,0 6.72,3.037 6.72,9.487 V 0 h 8.237 v -20.488 c 0,-11.274 -5.688,-16.639 -15.227,-16.639 -9.216,0 -14.637,5.094 -14.637,16.746 V 0 Z"
           style="fill:#f7b102;fill-opacity:1;fill-rule:nonzero;stroke:none"
           id="path45" />
      </g>
      <g
         id="g47"
         transform="matrix(1,0,0,1.2114129,264.24398,89.531553)"
         style="fill:#f7b102;fill-opacity:1">
        <path
           d="M 0,0 C 0,2.872 2.003,4.931 4.878,4.931 7.749,4.931 9.646,2.872 9.699,0 9.699,-2.818 7.805,-4.932 4.878,-4.932 1.949,-4.932 0,-2.818 0,0 M 1.787,7.642 0.54,32.195 H 9.158 L 7.967,7.642 Z"
           style="fill:#f7b102;fill-opacity:1;fill-rule:nonzero;stroke:none"
           id="path49" />
      </g>
      <g
         id="g51"
         transform="matrix(1.7330644,0,0,1.4466947,75.592983,107.19214)"
         style="fill:#f7b102;fill-opacity:1">
        <path
           d="m 0,0 c -3.498,-7.637 -10.02,-12.908 -14.58,-15.855 0.565,-0.056 1.134,-0.091 1.7,-0.091 4.427,0 8.209,1.723 10.652,4.847 2.308,2.944 3.115,6.801 2.283,10.858 z"
           style="fill:#f7b102;fill-opacity:1;fill-rule:nonzero;stroke:none"
           id="path53" />
      </g>
      <g
         id="g55"
         transform="matrix(1.7330644,0,0,1.4466947,70.03158,117.12544)"
         style="fill:#f7b102;fill-opacity:1">
        <path
           d="M 0,0 C -0.82,1.095 -1.768,2.118 -2.835,3.046 -6.506,-7.429 -16.804,-15.297 -21.498,-18.45 l 0.246,-0.203 c 0.968,-0.755 1.994,-1.405 3.053,-1.965 C -15.96,-19.508 -2.511,-12.38 0,0"
           style="fill:#f7b102;fill-opacity:1;fill-rule:nonzero;stroke:none"
           id="path57" />
      </g>
      <g
         id="g59"
         transform="matrix(1.7330644,0,0,1.4466947,57.285759,125.86145)"
         style="fill:#f7b102;fill-opacity:1">
        <path
           d="M 0,0 C -1.614,0.785 -3.302,1.344 -5.013,1.641 -8.086,-8.67 -16.704,-14.32 -20.177,-16.232 c 0.564,-1.522 1.362,-3.013 2.37,-4.41 C -13.96,-18.131 -2.798,-10.121 0,0"
           style="fill:#f7b102;fill-opacity:1;fill-rule:nonzero;stroke:none"
           id="path61" />
      </g>
      <g
         id="g63"
         transform="matrix(1.7330644,0,0,1.4466947,39.077492,128.31403)"
         style="fill:#f7b102;fill-opacity:1">
        <path
           d="M 0,0 C -3.315,-0.539 -6.13,-2.141 -8.085,-4.643 -9.846,-6.89 -10.681,-9.612 -10.681,-12.442 -7.557,-10.445 -2.428,-6.361 0,0"
           style="fill:#f7b102;fill-opacity:1;fill-rule:nonzero;stroke:none"
           id="path65" />
      </g>
    </g>
  </g>
</svg>
